<svg width="839" height="540" viewBox="0 0 839 540" fill="none" xmlns="http://www.w3.org/2000/svg">
<mask id="mask0_201_106" style="mask-type:luminance" maskUnits="userSpaceOnUse" x="0" y="0" width="840" height="540">
<path d="M105.89 59.6967L2.00003 185.819C2.00003 185.819 40.4392 330.537 147.446 433.7C352.94 631.776 653.056 502.329 770.784 412.922C882.092 322.122 827.238 302.134 791.562 309.032L687.673 329.81C876.025 32.6645 824.288 0.936606 770.784 18.1408L583.783 101.253C463.915 167.264 407.17 132.419 376.003 101.253L313.669 38.9187C220.169 -44.1931 127.291 35.5942 105.89 59.6967Z" fill="white" stroke="white" stroke-width="4" stroke-linecap="round" stroke-linejoin="round"/>
<path d="M209.78 225.92C232.73 225.92 251.335 207.315 251.335 184.364C251.335 161.414 232.73 142.808 209.78 142.808C186.829 142.808 168.224 161.414 168.224 184.364C168.224 207.315 186.829 225.92 209.78 225.92Z" fill="black"/>
</mask>
<g mask="url(#mask0_201_106)">
<path d="M-81.1118 -231.195H916.23V766.147H-81.1118V-231.195Z" fill="black"/>
</g>
</svg>
